<svg width="15" height="15" viewBox="0 0 15 15" fill="none" xmlns="http://www.w3.org/2000/svg">
<path fill-rule="evenodd" clip-rule="evenodd" d="M1.30465 9.62604C1.43726 9.62604 1.56443 9.67872 1.6582 9.77248C1.75197 9.86625 1.80465 9.99343 1.80465 10.126V13.626H5.30465C5.43726 13.626 5.56443 13.6787 5.6582 13.7725C5.75197 13.8663 5.80465 13.9934 5.80465 14.126C5.80465 14.2586 5.75197 14.3858 5.6582 14.4796C5.56443 14.5734 5.43726 14.626 5.30465 14.626H1.30465C1.17204 14.626 1.04486 14.5734 0.951096 14.4796C0.857328 14.3858 0.804649 14.2586 0.804649 14.126V10.126C0.804649 9.99343 0.857328 9.86625 0.951096 9.77248C1.04486 9.67872 1.17204 9.62604 1.30465 9.62604Z" fill="white"/>
<path fill-rule="evenodd" clip-rule="evenodd" d="M6.15865 9.23604C6.20521 9.28248 6.24215 9.33766 6.26736 9.3984C6.29257 9.45915 6.30554 9.52427 6.30554 9.59004C6.30554 9.6558 6.29257 9.72092 6.26736 9.78167C6.24215 9.84241 6.20521 9.89759 6.15865 9.94404L1.65865 14.444C1.56476 14.5379 1.43742 14.5907 1.30465 14.5907C1.17187 14.5907 1.04453 14.5379 0.950648 14.444C0.856761 14.3501 0.804016 14.2228 0.804016 14.09C0.804016 13.9573 0.856761 13.8299 0.950648 13.736L5.45065 9.23604C5.49709 9.18947 5.55227 9.15253 5.61301 9.12732C5.67376 9.10212 5.73888 9.08914 5.80465 9.08914C5.87042 9.08914 5.93554 9.10212 5.99628 9.12732C6.05703 9.15253 6.1122 9.18947 6.15865 9.23604ZM14.6586 0.736036C14.7052 0.782481 14.7422 0.837657 14.7674 0.898402C14.7926 0.959147 14.8055 1.02427 14.8055 1.09004C14.8055 1.1558 14.7926 1.22092 14.7674 1.28167C14.7422 1.34241 14.7052 1.39759 14.6586 1.44404L10.1586 5.94404C10.0648 6.03792 9.93742 6.09067 9.80465 6.09067C9.67187 6.09067 9.54453 6.03792 9.45065 5.94404C9.35676 5.85015 9.30402 5.72281 9.30402 5.59004C9.30402 5.45726 9.35676 5.32992 9.45065 5.23604L13.9506 0.736036C13.9971 0.689472 14.0523 0.65253 14.113 0.627323C14.1738 0.602117 14.2389 0.589142 14.3046 0.589142C14.3704 0.589142 14.4355 0.602117 14.4963 0.627323C14.557 0.65253 14.6122 0.689472 14.6586 0.736036Z" fill="white"/>
<path fill-rule="evenodd" clip-rule="evenodd" d="M9.84065 1.09003C9.84065 0.957419 9.89333 0.830242 9.98709 0.736473C10.0809 0.642705 10.208 0.590027 10.3406 0.590027H14.3406C14.4733 0.590027 14.6004 0.642705 14.6942 0.736473C14.788 0.830242 14.8406 0.957419 14.8406 1.09003V5.09003C14.8406 5.22264 14.788 5.34981 14.6942 5.44358C14.6004 5.53735 14.4733 5.59003 14.3406 5.59003C14.208 5.59003 14.0809 5.53735 13.9871 5.44358C13.8933 5.34981 13.8406 5.22264 13.8406 5.09003V1.59003H10.3406C10.208 1.59003 10.0809 1.53735 9.98709 1.44358C9.89333 1.34981 9.84065 1.22264 9.84065 1.09003Z" fill="white"/>
</svg>
