<svg width="20" height="20" viewBox="0 0 12 12" fill="none" xmlns="http://www.w3.org/2000/svg">
<path d="M10.6714 0.511993H1.12774C0.671342 0.511993 0.300964 0.87366 0.300964 1.31902V10.9039C0.300964 11.3499 0.671342 11.712 1.12774 11.712H10.6714C11.1281 11.712 11.501 11.3499 11.501 10.9039V1.31902C11.501 0.87366 11.1281 0.511993 10.6714 0.511993ZM3.6227 10.0559H1.96074V4.71122H3.6227V10.0559ZM2.79172 3.98042C2.66522 3.98042 2.53996 3.95549 2.42309 3.90706C2.30623 3.85863 2.20006 3.78765 2.11063 3.69817C2.02121 3.60869 1.9503 3.50247 1.90195 3.38558C1.85359 3.26868 1.82875 3.14341 1.82883 3.0169C1.82883 2.76155 1.93027 2.51666 2.11083 2.33609C2.29139 2.15553 2.53629 2.05409 2.79164 2.05409C3.047 2.05409 3.29189 2.15553 3.47245 2.33609C3.65301 2.51666 3.75445 2.76155 3.75445 3.0169C3.75445 3.27231 3.65305 3.51726 3.47252 3.69793C3.292 3.87861 3.04712 3.98021 2.79172 3.98042ZM9.8443 10.0559H8.18499V7.45693C8.18499 6.83688 8.17285 6.03966 7.3215 6.03966C6.45692 6.03966 6.32516 6.71493 6.32516 7.41197V10.0561H4.66461V4.71122H6.25828V5.44108H6.28099C6.50281 5.02108 7.04476 4.5779 7.85303 4.5779C9.53396 4.5779 9.84445 5.68453 9.84445 7.12419V10.0559H9.8443Z" fill="white"/>
</svg>
