<svg width="20" height="20" viewBox="0 0 12 12" fill="none" xmlns="http://www.w3.org/2000/svg">
<path d="M5.81056 3.64802C4.32857 3.64802 3.15959 4.85404 3.15959 6.33602C3.15959 7.81801 4.38412 9.02402 5.86611 9.02402C6.40849 9.02402 6.94071 8.86274 7.38752 8.5593C7.42022 8.53755 7.44831 8.50958 7.47019 8.47696C7.49206 8.44435 7.50729 8.40775 7.515 8.36924C7.52272 8.33074 7.52276 8.29109 7.51513 8.25257C7.5075 8.21405 7.49235 8.17741 7.47055 8.14475C7.44875 8.11231 7.42074 8.08452 7.38814 8.06298C7.35554 8.04144 7.31899 8.02657 7.28061 8.01924C7.24223 8.01191 7.20278 8.01226 7.16453 8.02026C7.12628 8.02827 7.09 8.04378 7.05779 8.0659C6.71202 8.30209 6.30276 8.42789 5.88403 8.42669C4.73117 8.42669 3.79396 7.48887 3.79396 6.33602C3.79396 5.18317 4.6577 4.24536 5.81056 4.24536C6.96341 4.24536 7.82656 5.18317 7.82656 6.33602V6.48535C7.82656 6.60417 7.77936 6.71812 7.69534 6.80214C7.61132 6.88616 7.49737 6.93336 7.37856 6.93336C7.25974 6.93336 7.14579 6.88616 7.06177 6.80214C6.97776 6.71812 6.93056 6.60417 6.93056 6.48535V5.44002C6.93056 5.27516 6.87142 5.14136 6.70656 5.14136C6.5841 5.14136 6.5166 5.21542 6.47001 5.32115C6.29039 5.20443 6.08092 5.142 5.86671 5.14136C5.20725 5.14136 4.6816 5.67657 4.6816 6.33602C4.68284 6.57403 4.75486 6.80628 4.8885 7.00323C5.02214 7.20018 5.21135 7.35292 5.43206 7.44201C5.65277 7.5311 5.89499 7.55252 6.1279 7.50353C6.36082 7.45454 6.57389 7.33736 6.74001 7.16691C6.93056 7.38733 7.13664 7.53069 7.45203 7.53069C8.02845 7.53069 8.42389 7.06178 8.42389 6.48535V6.33602C8.42389 4.85404 7.29254 3.64802 5.81056 3.64802ZM5.88522 6.93336C5.55609 6.93336 5.28789 6.66515 5.28789 6.33602C5.28789 6.00689 5.55609 5.73869 5.88522 5.73869C6.21435 5.73869 6.48256 6.00689 6.48256 6.33602C6.48256 6.66515 6.21435 6.93336 5.88522 6.93336ZM5.90374 11.712C2.93918 11.712 0.52774 9.30059 0.52774 6.33602C0.52774 3.37146 2.93918 0.960022 5.90374 0.960022C8.86831 0.960022 11.2797 3.37146 11.2797 6.33602C11.2797 9.30059 8.86831 11.712 5.90374 11.712ZM5.90374 2.15469C3.59863 2.15469 1.72241 4.03091 1.72241 6.33602C1.72241 8.64113 3.59863 10.5174 5.90374 10.5174C8.20885 10.5174 10.0851 8.64113 10.0851 6.33602C10.0851 4.03091 8.20885 2.15469 5.90374 2.15469Z" fill="white"/>
</svg>
