<svg width="20" height="20" viewBox="0 0 13 12" fill="none" xmlns="http://www.w3.org/2000/svg">
<path d="M11.4019 0.511993H1.43825C1.2743 0.511993 1.11706 0.577123 1.00113 0.693053C0.885198 0.808984 0.820068 0.96622 0.820068 1.13017V11.094C0.82011 11.2579 0.885257 11.4151 1.00118 11.531C1.11711 11.6469 1.27432 11.712 1.43825 11.712H6.80227V7.37479H5.34269V5.68453H6.80227V4.4379C6.80227 2.99124 7.68582 2.20366 8.97631 2.20366C9.59449 2.20366 10.1257 2.24955 10.2806 2.27024V3.78208L9.38558 3.78255C8.68371 3.78255 8.54791 4.11606 8.54791 4.60544V5.68468H10.2217L10.0038 7.37495H8.54791V11.712H11.402C11.566 11.712 11.7232 11.6468 11.8391 11.5309C11.955 11.415 12.0201 11.2577 12.0201 11.0938V1.13017C12.0201 0.96622 11.9549 0.808984 11.839 0.693053C11.7231 0.577123 11.5658 0.511993 11.4019 0.511993Z" fill="white"/>
</svg>
